<svg width="250" height="250" viewBox="0 0 250 250" fill="none" xmlns="http://www.w3.org/2000/svg">
<g clip-path="url(#clip0_296_2)">
<path d="M197.917 0H52.0833C23.3185 0 0 22.8426 0 51.0204V198.98C0 227.157 23.3185 250 52.0833 250H197.917C226.682 250 250 227.157 250 198.98V51.0204C250 22.8426 226.682 0 197.917 0Z" fill="#7190E6"/>
<path d="M47.6885 168.367V157.127L88.1752 102.758H47.7292V86.7347H113.647V97.975L73.1606 152.344H113.606V168.367H47.6885ZM125.966 168.367V86.7347H146.107V119.5H178.944V86.7347H199.046V168.367H178.944V135.563H146.107V168.367H125.966Z" fill="#E1E3E6"/>
</g>
<defs>
<clipPath id="clip0_296_2">
<rect width="250" height="250" fill="white"/>
</clipPath>
</defs>
</svg>
