<svg width="16" height="16" viewBox="0 0 16 16" fill="none" xmlns="http://www.w3.org/2000/svg">
<path d="M12.6667 0H3.33333C1.49238 0 0 1.46193 0 3.26531V12.7347C0 14.5381 1.49238 16 3.33333 16H12.6667C14.5076 16 16 14.5381 16 12.7347V3.26531C16 1.46193 14.5076 0 12.6667 0Z" fill="#7190E6"/>
<path d="M3.05176 10.7755V10.0561L5.64291 6.57653H3.05436V5.55103H7.27311V6.27041L4.68197 9.75001H7.27051V10.7755H3.05176ZM8.06151 10.7755V5.55103H9.35057V7.64797H11.4521V5.55103H12.7386V10.7755H11.4521V8.67602H9.35057V10.7755H8.06151Z" fill="#E1E3E6"/>
</svg>
