<svg width="16" height="16" viewBox="0 0 16 16" fill="none" xmlns="http://www.w3.org/2000/svg">
<path d="M2 16C1.45 16 0.979333 15.8211 0.588 15.4633C0.196 15.1049 0 14.6743 0 14.1714V5.94286C0 5.65333 0.0709998 5.37905 0.213 5.12C0.354333 4.86095 0.55 4.64762 0.8 4.48L6.8 0.365714C6.98333 0.24381 7.175 0.152381 7.375 0.0914285C7.575 0.0304761 7.78333 0 8 0C8.21667 0 8.425 0.0304761 8.625 0.0914285C8.825 0.152381 9.01667 0.24381 9.2 0.365714L15.2 4.48C15.45 4.64762 15.646 4.86095 15.788 5.12C15.9293 5.37905 16 5.65333 16 5.94286V14.1714C16 14.6743 15.8043 15.1049 15.413 15.4633C15.021 15.8211 14.55 16 14 16H10V9.6H6V16H2Z" fill="#7190E6"/>
</svg>
