<svg width="26" height="22" viewBox="0 0 26 22" fill="none" xmlns="http://www.w3.org/2000/svg">
<path d="M2.08895 21.8799C1.59158 22.0753 1.11908 22.0323 0.671449 21.7509C0.223816 21.4706 0 21.0618 0 20.5245V15.0663C0 14.7244 0.099474 14.4191 0.298422 14.1505C0.49737 13.8819 0.770923 13.7109 1.11908 13.6376L11.9369 11.0001L1.11908 8.3626C0.770923 8.28934 0.49737 8.11839 0.298422 7.84975C0.099474 7.58112 0 7.27585 0 6.93395V1.47574C0 0.938472 0.223816 0.529168 0.671449 0.247833C1.11908 -0.0325259 1.59158 -0.0750198 2.08895 0.120352L25.0674 9.64473C25.6891 9.91337 26 10.3652 26 11.0001C26 11.6351 25.6891 12.0869 25.0674 12.3555L2.08895 21.8799Z" fill="#D9D9D9"/>
</svg>
