<svg width="30" height="8" viewBox="0 0 30 8" fill="none" xmlns="http://www.w3.org/2000/svg">
<path d="M26.5962 7.99997H25.7755C25.7092 7.98095 25.6488 7.94926 25.5824 7.93658C23.8564 7.65766 22.4925 6.14895 22.3778 4.38036C22.245 2.40256 23.3193 0.729031 25.0694 0.183867C25.2987 0.114137 25.5401 0.0634231 25.7755 3.192e-05H26.5962C26.6506 0.0190493 26.6988 0.0507455 26.7592 0.0570846C28.3524 0.329667 29.5655 1.5341 29.9095 3.18227C29.9336 3.30905 29.9698 3.43583 30 3.56262V4.42474C29.9819 4.48179 29.9517 4.53884 29.9457 4.59589C29.6922 6.24407 28.5757 7.49918 27.0247 7.87956C26.8738 7.91759 26.7351 7.96193 26.5962 7.99997ZM3.39769 0L4.21851 3.192e-05C4.2849 0.0190493 4.34525 0.0507455 4.41164 0.0570846C6.14972 0.342345 7.5076 1.85739 7.61623 3.64503C7.73694 5.61649 6.65063 7.28368 4.89444 7.82251C4.67111 7.89224 4.44181 7.94295 4.21848 8H3.39772C3.34341 7.98098 3.29512 7.94929 3.24081 7.93661C1.6717 7.63233 0.645748 6.67512 0.156911 5.07767C0.0905254 4.86847 0.0543152 4.64661 0 4.43108V3.56896C0.0181051 3.5119 0.0482803 3.45485 0.0543153 3.3978C0.313821 1.74329 1.42427 0.494483 2.97527 0.114136C3.12011 0.0760699 3.25891 0.0380347 3.39769 0ZM14.5867 3.192e-05H15.4074C15.4738 0.0190493 15.5342 0.0507449 15.6005 0.0634231C17.3326 0.348683 18.7267 1.92079 18.7991 3.69574C18.8836 5.69256 17.7369 7.38511 15.9687 7.86054C15.7816 7.91125 15.5945 7.95563 15.4074 8H14.5867C14.5203 7.98098 14.4599 7.94929 14.3935 7.93661C12.6615 7.65769 11.2674 6.07925 11.1889 4.30429C11.0984 2.30747 12.2511 0.614926 14.0194 0.139492C14.2125 0.0887794 14.3996 0.0444058 14.5867 3.192e-05Z" fill="#515151"/>
</svg>
