<svg width="16" height="11" viewBox="0 0 16 11" fill="none" xmlns="http://www.w3.org/2000/svg">
<path d="M10.5003 10.1199C10.5581 10.2027 10.5926 10.3011 10.5996 10.4037C10.6066 10.5063 10.586 10.6089 10.54 10.6996C10.4946 10.7898 10.4269 10.8653 10.3441 10.9182C10.2613 10.9711 10.1665 10.9993 10.0697 11H0.531218C0.434424 10.9993 0.339605 10.9711 0.256809 10.9182C0.174013 10.8653 0.106325 10.7898 0.0609164 10.6996C0.0149651 10.6089 -0.00568834 10.5063 0.00134494 10.4037C0.00837822 10.3011 0.0428109 10.2027 0.10066 10.1199C0.841272 9.00314 1.88845 8.15239 3.10132 7.68207C2.39034 7.18401 1.8503 6.45782 1.56113 5.61095C1.27195 4.76409 1.24901 3.84155 1.49568 2.97986C1.74236 2.11817 2.24555 1.36312 2.93079 0.82645C3.61604 0.289778 4.44692 0 5.30047 0C6.15403 0 6.98491 0.289778 7.67015 0.82645C8.35539 1.36312 8.85859 2.11817 9.10526 2.97986C9.35194 3.84155 9.32899 4.76409 9.03982 5.61095C8.75064 6.45782 8.21061 7.18401 7.49963 7.68207C8.7125 8.15239 9.75967 9.00314 10.5003 10.1199V10.1199ZM15.9054 10.1199C15.1606 9.00451 14.1118 8.15431 12.8982 7.68207C13.6114 7.18591 14.1537 6.46021 14.4444 5.61292C14.7351 4.76564 14.7586 3.84204 14.5115 2.9795C14.2644 2.11697 13.7599 1.36159 13.073 0.825738C12.386 0.289882 11.5534 0.00217711 10.699 0.00542009C10.3343 0.00745975 9.97143 0.0591104 9.6193 0.159093C9.53659 0.18529 9.46099 0.231907 9.39878 0.295077C9.33658 0.358247 9.28955 0.436149 9.2616 0.522319C9.23495 0.607783 9.22826 0.698771 9.2421 0.787547C9.25593 0.876323 9.28989 0.960264 9.34109 1.03223C9.94017 1.88105 10.2843 2.89967 10.3292 3.95672C10.3741 5.01376 10.1176 6.06074 9.5928 6.9626C9.52551 7.08243 9.50249 7.22423 9.52816 7.36085C9.55382 7.49746 9.62637 7.61929 9.7319 7.70302C9.93062 7.86601 10.1227 8.03365 10.3082 8.20595L10.3413 8.24088C11.0484 8.93083 11.622 9.75868 12.0304 10.6787C12.0723 10.7748 12.1396 10.8562 12.2241 10.9132C12.3087 10.9702 12.407 11.0003 12.5073 11H15.4683C15.5651 10.9993 15.6599 10.9711 15.7427 10.9182C15.8255 10.8653 15.8932 10.7898 15.9386 10.6996C15.984 10.6091 16.0049 10.5071 15.999 10.4049C15.9932 10.3026 15.9608 10.204 15.9054 10.1199V10.1199Z" fill="#7190E6"/>
</svg>
